<svg width="512" height="512" viewBox="0 0 512 512" fill="none" xmlns="http://www.w3.org/2000/svg">
<rect width="512" height="512" fill="#262C24"/>
<path fill-rule="evenodd" clip-rule="evenodd" d="M238.817 90.7534C217.484 82.5818 193.553 93.2146 185.364 114.503L108.759 313.653C100.571 334.941 111.225 358.822 132.558 366.994L274.183 421.247C295.516 429.418 319.447 418.785 327.636 397.497L404.241 198.347C412.43 177.059 401.775 153.178 380.442 145.006L238.817 90.7534ZM233.874 103.602C219.653 98.1541 203.699 105.243 198.24 119.435L124.105 312.161C118.646 326.353 125.75 342.274 139.971 347.721L275.159 399.508C289.381 404.956 305.335 397.867 310.794 383.675L384.928 190.949C390.387 176.757 383.284 160.836 369.063 155.388L233.874 103.602Z" fill="#EFFFEA"/>
<path d="M157.663 148.116C159.027 144.568 163.016 142.796 166.571 144.158L192.321 154.022C195.877 155.384 197.653 159.364 196.288 162.912C194.923 166.46 190.934 168.232 187.379 166.87L161.629 157.006C158.074 155.644 156.298 151.664 157.663 148.116Z" fill="#EFFFEA"/>
<path d="M220.543 157.461C221.907 153.913 225.896 152.141 229.451 153.503L280.952 173.231C284.507 174.593 286.283 178.574 284.918 182.122C283.553 185.67 279.565 187.442 276.009 186.08L224.509 166.352C220.954 164.99 219.178 161.009 220.543 157.461Z" fill="#EFFFEA"/>
<path d="M210.658 183.158C212.023 179.61 216.011 177.838 219.567 179.2L341.88 226.054C345.435 227.416 347.211 231.397 345.846 234.945C344.482 238.493 340.493 240.265 336.938 238.903L214.625 192.049C211.069 190.687 209.293 186.706 210.658 183.158Z" fill="#EFFFEA"/>
<path d="M200.774 208.855C202.138 205.307 206.127 203.535 209.682 204.897L241.87 217.227C245.425 218.589 247.201 222.569 245.836 226.117C244.472 229.665 240.483 231.437 236.928 230.075L204.74 217.745C201.185 216.383 199.409 212.403 200.774 208.855Z" fill="#EFFFEA"/>
<path d="M190.889 234.552C192.254 231.004 196.242 229.232 199.798 230.594L270.611 257.72C274.166 259.082 275.942 263.062 274.577 266.61C273.212 270.158 269.224 271.93 265.668 270.568L194.855 243.442C191.3 242.08 189.524 238.1 190.889 234.552Z" fill="#EFFFEA"/>
<path d="M181.004 260.249C182.369 256.701 186.358 254.929 189.913 256.291L241.413 276.019C244.969 277.381 246.745 281.361 245.38 284.909C244.015 288.457 240.027 290.229 236.471 288.867L184.971 269.139C181.416 267.777 179.64 263.797 181.004 260.249Z" fill="#EFFFEA"/>
<path d="M171.12 285.946C172.485 282.398 176.473 280.625 180.029 281.987L205.779 291.851C209.334 293.213 211.11 297.194 209.745 300.742C208.38 304.29 204.392 306.062 200.836 304.7L175.086 294.836C171.531 293.474 169.755 289.493 171.12 285.946Z" fill="#EFFFEA"/>
<path d="M161.235 311.642C162.6 308.094 166.589 306.322 170.144 307.684L215.207 324.946C218.762 326.308 220.538 330.288 219.173 333.836C217.808 337.384 213.82 339.157 210.265 337.795L165.202 320.533C161.646 319.171 159.871 315.19 161.235 311.642Z" fill="#EFFFEA"/>
<path d="M258.711 231.049C260.076 227.501 264.065 225.729 267.62 227.091L331.996 251.751C335.551 253.113 337.327 257.094 335.962 260.641C334.597 264.189 330.609 265.962 327.053 264.6L262.678 239.939C259.122 238.578 257.347 234.597 258.711 231.049Z" fill="#EFFFEA"/>
<path d="M287.452 271.542C288.817 267.994 292.805 266.222 296.361 267.584L322.111 277.448C325.666 278.81 327.442 282.79 326.077 286.338C324.713 289.886 320.724 291.658 317.169 290.296L291.419 280.432C287.863 279.07 286.087 275.09 287.452 271.542Z" fill="#EFFFEA"/>
<path d="M258.255 289.841C259.62 286.293 263.608 284.521 267.164 285.883L312.226 303.145C315.782 304.507 317.558 308.487 316.193 312.035C314.828 315.583 310.839 317.355 307.284 315.993L262.221 298.731C258.666 297.369 256.89 293.389 258.255 289.841Z" fill="#EFFFEA"/>
<path d="M222.62 305.674C223.985 302.126 227.974 300.354 231.529 301.715L302.342 328.842C305.897 330.204 307.673 334.184 306.308 337.732C304.943 341.28 300.955 343.052 297.4 341.69L226.587 314.564C223.031 313.202 221.255 309.222 222.62 305.674Z" fill="#EFFFEA"/>
<path d="M232.048 338.769C233.413 335.221 237.402 333.448 240.957 334.81L292.457 354.539C296.013 355.9 297.788 359.881 296.424 363.429C295.059 366.977 291.07 368.749 287.515 367.387L236.015 347.659C232.459 346.297 230.684 342.317 232.048 338.769Z" fill="#EFFFEA"/>
<path d="M354.692 135.142L374.005 142.54L356.707 187.509L349.934 176.315L337.394 180.111L354.692 135.142Z" fill="#EFFFEA"/>
<path d="M142.836 186.661C144.201 183.113 148.189 181.341 151.744 182.703L177.495 192.567C181.05 193.929 182.826 197.909 181.461 201.457C180.096 205.005 176.108 206.777 172.552 205.415L146.802 195.551C143.247 194.189 141.471 190.209 142.836 186.661Z" fill="#EFFFEA"/>
<path d="M113.182 263.751C114.547 260.203 118.535 258.431 122.091 259.793L147.841 269.657C151.396 271.019 153.172 274.999 151.807 278.547C150.443 282.095 146.454 283.868 142.899 282.506L117.148 272.642C113.593 271.28 111.817 267.299 113.182 263.751Z" fill="#EFFFEA"/>
<path d="M128.009 225.206C129.374 221.658 133.362 219.886 136.918 221.248L162.668 231.112C166.223 232.474 167.999 236.454 166.634 240.002C165.269 243.55 161.281 245.322 157.725 243.96L131.975 234.096C128.42 232.734 126.644 228.754 128.009 225.206Z" fill="#EFFFEA"/>
</svg>
